<?xml version="1.0" encoding="UTF-8" standalone="no"?>
<svg
   version="1.1"
   viewBox="-5 -10 120 120"
   id="svg12"
   sodipodi:docname="analytical.svg"
   width="120"
   height="120"
   inkscape:version="1.1.2 (0a00cf5339, 2022-02-04)"
   xmlns:inkscape="http://www.inkscape.org/namespaces/inkscape"
   xmlns:sodipodi="http://sodipodi.sourceforge.net/DTD/sodipodi-0.dtd"
   xmlns="http://www.w3.org/2000/svg"
   xmlns:svg="http://www.w3.org/2000/svg">
  <defs
     id="defs16" />
  <sodipodi:namedview
     id="namedview14"
     pagecolor="#ffffff"
     bordercolor="#666666"
     borderopacity="1.0"
     inkscape:pageshadow="2"
     inkscape:pageopacity="0.0"
     inkscape:pagecheckerboard="0"
     showgrid="false"
     inkscape:zoom="6.2772624"
     inkscape:cx="-3.5843651"
     inkscape:cy="49.145628"
     inkscape:window-width="1588"
     inkscape:window-height="1085"
     inkscape:window-x="26"
     inkscape:window-y="23"
     inkscape:window-maximized="0"
     inkscape:current-layer="svg12"
     width="120px" />
  <path
     d="m 60.341863,38.374771 c 0,4.3164 -3.4961,7.8125 -7.8125,7.8125 -4.3164,0 -7.8125,-3.4961 -7.8125,-7.8125 0,-4.3164 3.4961,-7.8125 7.8125,-7.8125 4.3164,0 7.8125,3.4961 7.8125,7.8125"
     id="path2"
     style="fill:#18181b;fill-opacity:1" />
  <path
     d="m 70.611863,35.839771 c -0.64453,-0.09375 -1.1641,-0.57422 -1.3047,-1.2109 -0.42969,-1.9492 -1.1953,-3.7891 -2.2656,-5.4727 -0.35156,-0.54688 -0.32031,-1.2578 0.07031,-1.7773 l 2.2422,-2.9922 c -0.85547,-1.0312 -1.8047,-1.9805 -2.8359,-2.8359 l -2.9922,2.2422 c -0.51953,0.39062 -1.2266,0.41797 -1.7773,0.07031 -1.6875,-1.0703 -3.5273,-1.8359 -5.4727,-2.2656 -0.63281,-0.14062 -1.1172,-0.66016 -1.2109,-1.3047 l -0.53125,-3.7031 c -1.3359,-0.12109 -2.6719,-0.12109 -4.0117,0 l -0.53125,3.7031 c -0.09375,0.64453 -0.57422,1.1641 -1.2109,1.3047 -1.9453,0.42969 -3.7891,1.1953 -5.4727,2.2656 -0.54688,0.35156 -1.2578,0.32031 -1.7773,-0.07031 l -2.9922,-2.2422 c -1.0312,0.85547 -1.9805,1.8047 -2.8359,2.8359 l 2.2422,2.9922 c 0.39063,0.51953 0.41797,1.2266 0.07031,1.7773 -1.0703,1.6875 -1.8359,3.5234 -2.2656,5.4727 -0.14062,0.63281 -0.66016,1.1172 -1.3047,1.2109 l -3.7031,0.53125 c -0.0625,0.66797 -0.09375,1.3398 -0.09375,2.0078 0,0.66406 0.03125,1.3359 0.09375,2.0078 l 3.7031,0.53125 c 0.64453,0.09375 1.1641,0.57422 1.3047,1.2109 0.42969,1.9492 1.1953,3.7891 2.2656,5.4727 0.35156,0.54688 0.32031,1.2578 -0.07031,1.7773 l -2.2422,2.9922 c 0.85547,1.0312 1.8047,1.9805 2.8359,2.8359 l 2.9922,-2.2422 c 0.51953,-0.39062 1.2266,-0.41797 1.7773,-0.07031 1.6875,1.0703 3.5273,1.8359 5.4727,2.2656 0.63281,0.14062 1.1172,0.66016 1.2109,1.3047 l 0.53125,3.7031 c 1.3359,0.12109 2.6719,0.12109 4.0117,0 l 0.53125,-3.7031 c 0.09375,-0.64453 0.57422,-1.1641 1.2109,-1.3047 1.9453,-0.42969 3.7891,-1.1953 5.4727,-2.2656 0.54688,-0.35156 1.2578,-0.32031 1.7773,0.07031 l 2.9922,2.2422 c 1.0312,-0.85547 1.9805,-1.8047 2.8359,-2.8359 l -2.2422,-2.9922 c -0.39062,-0.51953 -0.41797,-1.2266 -0.07031,-1.7773 1.0703,-1.6875 1.8359,-3.5234 2.2656,-5.4727 0.14062,-0.63281 0.66016,-1.1172 1.3047,-1.2109 l 3.7031,-0.53125 c 0.0625,-0.66797 0.09375,-1.3398 0.09375,-2.0078 0,-0.66406 -0.03125,-1.3359 -0.09375,-2.0078 z m -18.082,13.473 c -6.0312,0 -10.938,-4.9062 -10.938,-10.938 0,-6.0318 4.9062,-10.938 10.938,-10.938 6.0318,0 10.938,4.9062 10.938,10.938 0,6.0318 -4.9062,10.938 -10.938,10.938 z"
     id="path4"
     style="fill:#18181b;fill-opacity:1" />
  <path
     d="m 99.154863,57.456771 c -0.0078,-0.01563 -0.01563,-0.03125 -0.02344,-0.04687 l -9.1016,-19.383 c -0.19141,-20.52 -16.938,-37.15200017 -37.5,-37.15200017 -20.559,0 -37.5,16.82000017 -37.5,37.50000017 0,13 4.3555,21.57 7.8555,28.461 2.4922,4.9062 4.6445,9.1406 4.6445,13.73 0,8.8828 -4.4766,17.961 -4.5234,18.051 -0.24219,0.48437 -0.21875,1.0625 0.07031,1.519499 0.28516,0.46094 0.78906,0.74219 1.3281,0.74219 h 39.062 c 0.74219,0 1.3867,-0.52344 1.5312,-1.257799 l 2.875,-14.367 h 17.469 c 2.5859,0 4.6875,-2.1016 4.6875,-4.6875 v -18.75 h 6.25 c 1.0547,0 2.0312,-0.52344 2.6094,-1.4062 0.57812,-0.87891 0.67969,-1.9844 0.26562,-2.9531 z m -21.883,-15.477 c -0.10156,0.6875 -0.64063,1.2266 -1.3281,1.3242 l -3.8516,0.55078 c -0.4375,1.5625 -1.0586,3.0625 -1.8555,4.4766 l 2.3359,3.1133 c 0.41406,0.55469 0.41406,1.3164 0,1.875 -1.4453,1.9375 -3.1641,3.6562 -5.1016,5.1016 -0.55469,0.41406 -1.3203,0.41406 -1.875,0 l -3.1133,-2.3359 c -1.4141,0.79687 -2.9141,1.4219 -4.4766,1.8555 l -0.55078,3.8516 c -0.09766,0.6875 -0.63672,1.2266 -1.3242,1.3281 -1.1953,0.17188 -2.4062,0.25781 -3.6094,0.25781 -1.1992,0 -2.4141,-0.08594 -3.6094,-0.25781 -0.6875,-0.10156 -1.2266,-0.64062 -1.3242,-1.3281 l -0.55078,-3.8516 c -1.5625,-0.4375 -3.0625,-1.0586 -4.4766,-1.8555 l -3.1133,2.3359 c -0.55469,0.41406 -1.3164,0.41406 -1.875,0 -1.9375,-1.4453 -3.6562,-3.1641 -5.1016,-5.1016 -0.41406,-0.55469 -0.41406,-1.3203 0,-1.875 l 2.3359,-3.1133 c -0.79688,-1.4141 -1.4219,-2.9141 -1.8555,-4.4766 l -3.8516,-0.55078 c -0.6875,-0.09766 -1.2266,-0.63672 -1.3281,-1.3242 -0.17188,-1.1953 -0.25781,-2.4062 -0.25781,-3.6094 0,-1.1992 0.08594,-2.4141 0.25781,-3.6094 0.10156,-0.6875 0.64062,-1.2266 1.3281,-1.3242 l 3.8516,-0.55078 c 0.4375,-1.5625 1.0586,-3.0625 1.8555,-4.4766 l -2.3359,-3.1133 c -0.41406,-0.55469 -0.41406,-1.3164 0,-1.875 1.4453,-1.9375 3.1641,-3.6562 5.1016,-5.1016 0.55469,-0.41406 1.3203,-0.41406 1.875,0 l 3.1133,2.3359 c 1.4141,-0.79688 2.9141,-1.4219 4.4766,-1.8555 l 0.55078,-3.8516 c 0.09766,-0.6875 0.63672,-1.2266 1.3242,-1.3281 2.3906,-0.34375 4.8281,-0.34375 7.2109,0 0.6875,0.10156 1.2266,0.64062 1.3242,1.3281 l 0.55078,3.8516 c 1.5625,0.4375 3.0625,1.0586 4.4766,1.8555 l 3.1133,-2.3359 c 0.55469,-0.41406 1.3164,-0.41406 1.875,0 1.9375,1.4453 3.6562,3.1641 5.1016,5.1016 0.41406,0.55469 0.41406,1.3203 0,1.875 l -2.3359,3.1133 c 0.79688,1.4141 1.4219,2.9141 1.8555,4.4766 l 3.8516,0.55078 c 0.6875,0.09766 1.2266,0.63672 1.3281,1.3242 0.17188,1.1953 0.25781,2.4062 0.25781,3.6094 0,1.1992 -0.08594,2.4141 -0.25781,3.6094 z"
     id="path6"
     style="fill:#18181b;fill-opacity:1" />
</svg>
