<?xml version="1.0" encoding="UTF-8" standalone="no"?>
<svg
   version="1.1"
   viewBox="-5 -10 110 100"
   id="svg8"
   sodipodi:docname="communication.svg"
   width="110"
   height="100"
   inkscape:version="1.1.2 (0a00cf5339, 2022-02-04)"
   xmlns:inkscape="http://www.inkscape.org/namespaces/inkscape"
   xmlns:sodipodi="http://sodipodi.sourceforge.net/DTD/sodipodi-0.dtd"
   xmlns="http://www.w3.org/2000/svg"
   xmlns:svg="http://www.w3.org/2000/svg">
  <defs
     id="defs12" />
  <sodipodi:namedview
     id="namedview10"
     pagecolor="#ffffff"
     bordercolor="#666666"
     borderopacity="1.0"
     inkscape:pageshadow="2"
     inkscape:pageopacity="0.0"
     inkscape:pagecheckerboard="0"
     showgrid="false"
     inkscape:zoom="9.7054541"
     inkscape:cx="40.338143"
     inkscape:cy="51.362872"
     inkscape:window-width="1588"
     inkscape:window-height="1085"
     inkscape:window-x="26"
     inkscape:window-y="23"
     inkscape:window-maximized="0"
     inkscape:current-layer="svg8" />
  <path
     d="m 62.003734,79.185912 v 2 c -0.0039,1.2344 -1.0039,2.2344 -2.2383,2.2422 h -19.281 c -1.2344,-0.0078 -2.2344,-1.0078 -2.2383,-2.2422 v -2 c 0,-6.5625 5.3164,-11.879 11.879,-11.879 6.5626,0 11.879,5.3164 11.879,11.879 z m 4.5391,-47.809 h 0.0039 c -0.12109,-3.207 -1.9219,-6.1172 -4.7422,-7.6523 -0.29297,-0.16406 -0.46875,-0.47266 -0.46094,-0.80859 v -4.0703 c 0.0039,-0.34766 -0.20703,-0.66016 -0.52734,-0.78906 -0.31641,-0.13281 -0.68359,-0.05859 -0.92188,0.1875 l -3.3281,3.3203 c -0.19531,0.20312 -0.47266,0.30859 -0.75,0.28125 -0.39844,0 -0.80078,-0.05078 -1.2109,-0.05078 -3.0273,-0.04297 -5.9805,0.92969 -8.3906,2.7617 3.4688,0.07031 6.8203,1.2578 9.5586,3.3906 2.7812,2.1055 4.4414,5.3711 4.5,8.8594 0,1.0938 -0.17188,2.1797 -0.50781,3.2188 4.0078,-1.5195 6.7812,-4.8398 6.7812,-8.6484 z m -9,5.4297 c 0,5.2891 -5.3516,9.5781 -11.949,9.5781 -0.41016,0 -0.80859,0 -1.2109,-0.05078 h 0.0039 c -0.28125,-0.01172 -0.55078,0.08984 -0.75,0.28125 l -3.332,3.332 c -0.24219,0.23828 -0.60547,0.3125 -0.91797,0.17969 -0.32812,-0.12891 -0.53906,-0.44141 -0.53125,-0.79297 v -4.0586 c 0.0078,-0.33594 -0.16797,-0.65234 -0.46094,-0.82031 -2.8164,-1.5352 -4.6211,-4.4414 -4.7383,-7.6484 0,-5.2891 5.3398,-9.5781 11.941,-9.5781 6.5977,-0.0039 11.996,4.2773 11.996,9.5781 z m -16.289,0 c 0,-0.76562 -0.46094,-1.4531 -1.1641,-1.7461 -0.70703,-0.29297 -1.5195,-0.13281 -2.0625,0.41016 -0.53906,0.53906 -0.69922,1.3516 -0.41016,2.0586 0.29297,0.70703 0.98437,1.168 1.7461,1.168 0.51172,0.01172 1.0039,-0.17969 1.3711,-0.53516 0.36328,-0.35938 0.57031,-0.84766 0.57031,-1.3555 z m 6.2305,0 c 0,-0.76562 -0.46094,-1.4531 -1.168,-1.7461 -0.70312,-0.29297 -1.5156,-0.13281 -2.0586,0.41016 -0.53906,0.53906 -0.70312,1.3516 -0.41016,2.0586 0.29297,0.70703 0.98438,1.168 1.7461,1.168 0.51172,0.01172 1.0039,-0.17969 1.3711,-0.53516 0.36328,-0.35938 0.57031,-0.84766 0.57031,-1.3555 z m 6.2383,0 h 0.0039 c 0,-0.76562 -0.46094,-1.4531 -1.168,-1.7461 -0.70703,-0.29297 -1.5195,-0.13281 -2.0586,0.41016 -0.54297,0.53906 -0.70312,1.3516 -0.41016,2.0586 0.29297,0.70703 0.98047,1.168 1.7461,1.168 0.50781,0.01172 1.0039,-0.17969 1.3672,-0.53516 0.36719,-0.35938 0.57031,-0.84766 0.57031,-1.3555 z m -25.488,-22.641 c 5.957,-5.5116995 13.773,-8.5702995 21.891,-8.5702995 8.118,0 15.934,3.0586 21.891,8.5702995 0.53906,0.5 1.3789,0.46875 1.8789,-0.07031 0.5,-0.53906 0.46875,-1.3789 -0.07031,-1.8789 -6.4453,-5.9726995 -14.91,-9.2890995 -23.699,-9.2890995 -8.789,0 -17.254,3.3164 -23.699,9.2890995 -0.53906,0.5 -0.57031,1.3398 -0.07031,1.8789 0.5,0.53906 1.3398,0.57031 1.8789,0.07031 z m 55.461,22.059 c -0.73437,0.01172 -1.3203,0.60938 -1.3203,1.3398 0.05078,6.1719 -1.668,12.23 -4.957,17.453 -3.2852,5.2266 -8,9.3984 -13.582,12.027 -0.32813,0.15234 -0.58203,0.42578 -0.70703,0.76172 -0.12109,0.33594 -0.10938,0.70703 0.04297,1.0352 0.30859,0.67969 1.1133,0.97656 1.793,0.66406 6.0195,-2.8555 11.105,-7.3633 14.66,-13 3.6094,-5.6719 5.4922,-12.273 5.4219,-19 -0.03516,-0.71875 -0.62891,-1.2852 -1.3516,-1.2812 z m -47.281,30.82 c -5.582,-2.6289 -10.297,-6.8008 -13.582,-12.027 -3.2891,-5.2227 -5.0078,-11.281 -4.957,-17.453 -0.05859,-0.69141 -0.64062,-1.2227 -1.3359,-1.2227 -0.69531,0 -1.2734,0.53125 -1.3359,1.2227 -0.05859,6.707 1.8242,13.285 5.4219,18.941 3.5547,5.6367 8.6406,10.145 14.66,13 0.65234,0.24219 1.3828,-0.05859 1.6797,-0.69141 0.29297,-0.62891 0.05469,-1.3828 -0.55078,-1.7305 z m 13.711,-13.469 c -2.3047,-0.0039 -4.3828,1.3789 -5.2656,3.5078 -0.88281,2.125 -0.39453,4.5781 1.2305,6.207 1.6289,1.625 4.082,2.1133 6.207,1.2305 2.1289,-0.88281 3.5117,-2.9609 3.5078,-5.2656 0,-3.1367 -2.543,-5.6797 -5.6797,-5.6797 z m -34,-40.582 c 2.3047,0.0039 4.3828,-1.3789 5.2656,-3.5077995 0.88281,-2.125 0.39453,-4.5742 -1.2305,-6.2031 -1.6289,-1.6289001 -4.082,-2.1172001 -6.207,-1.2305001 -2.1289,0.8828101 -3.5117,2.9609001 -3.5078,5.2617001 0,3.1366995 2.543,5.6796995 5.6797,5.6796995 z m 68,0 c 2.3008,0 4.3789,-1.3867 5.2578,-3.5116995 0.87891,-2.1289 0.39063,-4.5781 -1.2383,-6.2031 -1.6289,-1.6250001 -4.0781,-2.1094001 -6.2031,-1.2266001 -2.125,0.8828001 -3.5117,2.9609001 -3.5078,5.2617001 0,1.5078 0.60156,2.9569995 1.668,4.0194995 1.0664,1.0664 2.5156,1.6641 4.0234,1.6602 z m 0,2.3711 c -6.5469,0.02734 -11.844,5.3359 -11.859,11.879 v 2 c 0,0.59375 0.23438,1.1641 0.65625,1.582 0.42188,0.41797 0.98828,0.65234 1.582,0.64844 h 19.27 c 0.59375,0.0039 1.1641,-0.23047 1.5859,-0.64844 0.41797,-0.41797 0.65625,-0.98828 0.65625,-1.582 v -2 c -0.01563,-6.5547 -5.332,-11.867 -11.891,-11.879 z m -56.141,13.84 v -2 c 0.09375,-3.207 -1.1172,-6.3203 -3.3516,-8.6211 -2.2383,-2.3047 -5.3125,-3.6016 -8.5234,-3.6016 -3.2109,0 -6.2852004,1.2969 -8.5195004,3.6016 -2.2383,2.3008 -3.4492,5.4141 -3.3555,8.6211 v 2 c 0,0.59375 0.23828,1.1641 0.65625,1.582 0.42188,0.41797 0.99219,0.65234 1.5859,0.64844 H 25.746784 c 0.59375,0.0039 1.1602,-0.23047 1.582,-0.64844 0.4218,-0.41797 0.65625,-0.98828 0.65625,-1.582 z"
     fill-rule="evenodd"
     id="path2"
     style="fill:#18181b;fill-opacity:1" />
  <path
     style="fill:#18181b;fill-opacity:1;stroke-width:0.103035"
     d="m 44.40802,60.053375 c -0.446101,-0.243999 -0.463657,-0.343039 -0.463657,-2.615765 0,-1.325237 -0.04463,-2.308197 -0.113802,-2.506633 -0.08228,-0.236034 -0.317191,-0.458025 -0.848118,-0.80148 -1.95817,-1.266734 -3.402639,-3.235409 -3.995528,-5.445531 -0.287435,-1.071474 -0.309121,-2.790305 -0.04745,-3.760772 0.880899,-3.266997 3.761682,-5.930378 7.632286,-7.056303 6.589563,-1.916846 13.780881,1.144006 15.610128,6.644164 0.4824,1.450475 0.367144,3.613386 -0.278487,5.226143 -0.851135,2.126097 -2.977253,4.215745 -5.423626,5.330593 -1.856715,0.846133 -3.519139,1.1939 -5.930692,1.240659 l -1.689593,0.03276 -1.813592,1.801536 c -2.083468,2.06962 -2.196932,2.151801 -2.63787,1.910628 z m 0.873932,-11.52301 c 1.129435,-0.576194 1.372198,-2.050765 0.500981,-3.043025 -0.346924,-0.395126 -0.818347,-0.581318 -1.471846,-0.581318 -1.237985,0 -2.135098,1.176723 -1.811972,2.376723 0.135086,0.501673 0.645257,1.118542 1.082711,1.309153 0.465773,0.20295 1.236365,0.17506 1.700126,-0.06153 z m 6.261258,-0.01343 c 0.665851,-0.322332 1.004306,-0.886553 0.986866,-1.645152 -0.02682,-1.166553 -0.799072,-1.960346 -1.916929,-1.97039 -1.130862,-0.01016 -1.929181,0.792121 -1.929181,1.938762 0,0.486173 0.258918,1.106876 0.584552,1.40135 0.566388,0.512186 1.541673,0.630279 2.274692,0.27543 z m 6.186169,0.02251 c 0.974377,-0.49969 1.322008,-1.527413 0.857263,-2.534381 -0.345172,-0.747885 -0.899962,-1.090971 -1.775126,-1.09775 -1.263508,-0.0098 -2.172391,1.160281 -1.845184,2.375435 0.135086,0.501673 0.645257,1.118542 1.082711,1.309153 0.457693,0.19943 1.236581,0.175114 1.680336,-0.05246 z"
     id="path1282"
     transform="translate(-5,-10)" />
</svg>
