<?xml version="1.0" encoding="UTF-8" standalone="no"?>
<svg
   version="1.1"
   x="0px"
   y="0px"
   viewBox="0 0 100 100"
   xml:space="preserve"
   id="svg20"
   sodipodi:docname="management.svg"
   width="100"
   height="100"
   inkscape:version="1.1.2 (0a00cf5339, 2022-02-04)"
   xmlns:inkscape="http://www.inkscape.org/namespaces/inkscape"
   xmlns:sodipodi="http://sodipodi.sourceforge.net/DTD/sodipodi-0.dtd"
   xmlns="http://www.w3.org/2000/svg"
   xmlns:svg="http://www.w3.org/2000/svg"><defs
     id="defs24" /><sodipodi:namedview
     id="namedview22"
     pagecolor="#ffffff"
     bordercolor="#666666"
     borderopacity="1.0"
     inkscape:pageshadow="2"
     inkscape:pageopacity="0.0"
     inkscape:pagecheckerboard="0"
     showgrid="false"
     inkscape:zoom="6.984"
     inkscape:cx="37.156357"
     inkscape:cy="52.906644"
     inkscape:window-width="1588"
     inkscape:window-height="1085"
     inkscape:window-x="26"
     inkscape:window-y="23"
     inkscape:window-maximized="0"
     inkscape:current-layer="svg20" /><path
     d="m 50.1,13.6 c -4.2,0 -7.6,3.4 -7.6,7.6 0,4.2 3.4,7.6 7.6,7.6 4.2,0 7.6,-3.4 7.6,-7.6 0,-4.2 -3.4,-7.6 -7.6,-7.6 z"
     id="path2"
     style="fill:#18181b;fill-opacity:1" /><path
     d="M 57.1,31.5 H 43 c -3.6,0 -6.6,2.9 -6.6,6.6 v 6.2 h 27.3 v -6.2 c 0,-3.6 -2.9,-6.6 -6.6,-6.6 z"
     id="path4"
     style="fill:#18181b;fill-opacity:1" /><path
     d="m 18.7,55.4 c -4.2,0 -7.6,3.4 -7.6,7.6 0,4.2 3.4,7.6 7.6,7.6 4.2,0 7.6,-3.4 7.6,-7.6 0,-4.2 -3.4,-7.6 -7.6,-7.6 z"
     id="path6"
     style="fill:#18181b;fill-opacity:1" /><path
     d="M 25.7,73.4 H 11.6 C 8,73.4 5,76.3 5,80 v 6.2 H 32.3 V 80 c 0,-3.7 -2.9,-6.6 -6.6,-6.6 z"
     id="path8"
     style="fill:#18181b;fill-opacity:1" /><path
     d="m 81.7,55.4 c -4.2,0 -7.6,3.4 -7.6,7.6 0,4.2 3.4,7.6 7.6,7.6 4.2,0 7.6,-3.4 7.6,-7.6 0,-4.2 -3.4,-7.6 -7.6,-7.6 z"
     id="path10"
     style="fill:#18181b;fill-opacity:1" /><path
     d="M 88.7,73.3 H 74.6 C 71,73.3 68,76.3 68,80 v 6.2 H 95.3 V 80 c 0,-3.7 -2.9,-6.7 -6.6,-6.7 z"
     id="path12"
     style="fill:#18181b;fill-opacity:1" /><polygon
     points="53,48.7 47.1,48.7 47.1,64 36.4,64 36.4,69.8 50.1,69.8 63.7,69.8 63.7,64 53,64 "
     id="polygon14"
     style="fill:#18181b;fill-opacity:1" /></svg>
