<?xml version="1.0" encoding="UTF-8" standalone="no"?>
<svg
   version="1.1"
   width="1000"
   height="1000"
   viewBox="-1.135 10.224048 131.08028 111.28659"
   id="svg4"
   sodipodi:docname="initials.svg"
   inkscape:version="1.2.2 (b0a8486541, 2022-12-01)"
   xmlns:inkscape="http://www.inkscape.org/namespaces/inkscape"
   xmlns:sodipodi="http://sodipodi.sourceforge.net/DTD/sodipodi-0.dtd"
   xmlns="http://www.w3.org/2000/svg"
   xmlns:svg="http://www.w3.org/2000/svg">
  <defs
     id="defs8" />
  <sodipodi:namedview
     id="namedview6"
     pagecolor="#ffffff"
     bordercolor="#000000"
     borderopacity="0.25"
     inkscape:showpageshadow="2"
     inkscape:pageopacity="0.0"
     inkscape:pagecheckerboard="false"
     inkscape:deskcolor="#d1d1d1"
     showgrid="false"
     inkscape:zoom="0.70591778"
     inkscape:cx="726.00523"
     inkscape:cy="617.63567"
     inkscape:window-width="1152"
     inkscape:window-height="2016"
     inkscape:window-x="0"
     inkscape:window-y="887"
     inkscape:window-maximized="1"
     inkscape:current-layer="svg4" />
  <circle
     style="fill:#18181b;fill-opacity:1;stroke-width:2.0066;paint-order:stroke fill markers"
     id="path1003"
     cx="64.360008"
     cy="65.871521"
     r="63.897644" />
  <path
     d="m 32.780334,51.651892 v 0 q 1.305852,-3.074748 2.125244,-3.20377 0.829059,-0.104552 1.715261,0.217128 0.900856,0.287983 1.296689,1.001349 0.405489,0.737613 1.123724,2.474378 0.718077,1.736831 1.254967,2.309881 0.551328,0.539227 2.535755,3.907349 2.018325,3.382736 2.375285,4.139635 0.356968,0.756893 1.347319,2.18892 1.00497,1.398129 4.349476,-0.857766 3.36875,-2.265542 6.539107,-4.676939 3.194624,-2.421034 4.670809,-3.653634 1.48583,-1.208345 -2.924723,3.100189 -4.444453,4.293914 -6.019565,6.408403 -1.575113,2.114487 -2.73788,4.065115 -1.196657,1.936007 -0.507634,3.740553 0.679566,1.780217 1.558971,5.053829 0.855319,3.283188 1.402219,5.790192 0.580779,2.521626 0.984336,4.102575 0.413244,1.605203 0.13293,3.373646 -0.28989,1.74418 -1.255758,2.352699 -0.965874,0.608514 -1.958141,0.01972 -1.026149,-0.603307 -1.861571,-4.119086 -0.869326,-3.530401 -1.425206,-6.34277 -0.589776,-2.826987 -1.377336,-6.080938 -0.811781,-3.244311 -3.078149,-1.950479 -2.290598,1.303469 -4.789866,2.717936 -2.489626,1.438734 -5.022785,2.838591 -2.518541,1.365961 -3.942189,2.942803 -1.438269,1.610731 -3.481912,9.472421 -2.067899,7.871338 -2.674373,10.303048 -0.630729,2.44134 -1.722224,2.87508 -1.091499,0.43375 -1.904333,-0.19804 -0.798214,-0.66581 -0.973528,-2.44978 -0.199587,-1.77438 0.917937,-7.302019 1.117504,-5.527636 3.084585,-11.673746 1.933186,-6.160724 3.294111,-10.015683 1.385177,-3.864596 2.299546,-7.429753 0.914372,-3.565162 2.121391,-7.948755 1.231268,-4.393236 2.527483,-7.492244 z m 5.717947,9.158707 v 0 q -1.805645,-3.130223 -2.474609,-0.926452 -0.683582,2.237664 -1.216344,4.218791 -0.523115,2.005378 -2.483318,7.250006 -1.984459,5.254263 0.632054,3.428082 2.631128,-1.860077 6.542196,-3.891766 3.92567,-2.06557 3.274255,-3.351429 -0.666021,-1.251968 -1.560006,-2.44143 -0.89398,-1.189467 -2.714228,-4.285802 z M 68.742802,30.339258 v 0 q 1.524701,-1.251876 2.945506,-1.563718 1.396534,-0.302223 2.642264,-0.34787 1.255357,-0.02169 2.281195,0.722458 1.001584,0.7535 1.687215,1.913418 0.675988,1.135667 0.576111,2.439228 -0.07564,1.293911 -0.485202,2.383509 -0.375677,1.104209 -0.572255,2.305768 -0.220817,1.21119 -1.201638,1.994156 -0.971173,0.807227 -1.600865,0.636171 -0.644312,-0.137151 -0.627684,-3.205124 0.02621,-3.043705 -1.107829,-3.070499 -1.124447,-0.0026 -2.275044,0.847896 -1.165208,0.884342 -2.718596,4.113632 -1.529136,3.219648 -1.978303,6.824626 -0.42491,3.595348 0.002,5.588318 0.426847,1.992983 1.319597,3.744668 0.892679,1.751702 2.442762,4.309425 1.516153,2.543109 2.883384,4.499432 1.34297,1.96596 2.391381,5.593703 1.033816,3.661631 0.557454,6.491048 -0.461889,2.795543 -1.014237,4.868711 -0.561988,2.048918 -1.694892,3.650639 -1.157152,1.611367 -3.025144,2.494119 -1.867991,0.882755 -3.0991,0.894511 -1.221456,0.03605 -3.016918,-1.160319 -1.785815,-1.172084 -2.422615,-2.491844 -0.62718,-1.295489 -0.394472,-3.466322 0.266588,-2.156202 1.455819,-5.100356 1.189235,-2.944154 2.437174,-3.973706 1.26255,-1.063439 1.915635,-2.671094 0.638469,-1.573758 -2.680267,-6.461917 -3.342975,-4.878513 -4.259535,-8.951859 -0.892298,-4.08298 -0.707206,-6.656183 0.18512,-2.573211 1.457709,-5.94369 1.287207,-3.404381 2.575597,-5.180238 1.312646,-1.785493 2.532615,-3.309479 1.219968,-1.523989 2.77856,-2.761246 z m -0.722409,41.011648 v 0 q -1.175717,-0.908986 -2.669773,3.953795 -1.484413,4.887039 -0.726335,6.158597 0.743458,1.305451 1.523977,1.219966 0.746652,-0.09996 1.392136,-0.525363 0.660203,-0.45892 0.97709,-1.287035 0.350782,-0.813464 0.988634,-2.106119 0.637837,-1.292643 0.646299,-2.8969 0.0088,-1.604262 -0.454505,-2.627965 -0.477633,-0.989811 -1.677572,-1.889171 z M 86.638548,18.902425 v 0 q 0.724273,-0.933797 2.120183,-0.9549 1.429805,-0.0064 2.387852,0.708153 0.933799,0.724269 0.922247,1.543348 0.02233,0.83369 0.07765,2.103671 0.0649,1.294235 0.30533,2.181719 0.274257,0.902114 0.647075,1.062905 0.406747,0.17541 5.504643,0.564921 5.097922,0.389523 7.276492,1.48979 2.21246,1.11489 3.14625,1.839165 0.9338,0.724267 1.84238,1.879839 0.91823,1.179834 1.50684,2.378311 0.58862,1.198469 1.04938,3.206065 0.46076,2.007599 -1.15235,5.934686 -1.61312,3.927085 -3.13474,5.964152 -1.49736,2.027416 -3.41577,3.772782 -1.94265,1.755 -5.21502,4.263095 -3.296619,2.517742 -4.761904,3.212379 -1.489534,0.704287 -3.148871,1.476011 -1.659324,0.771765 -1.691412,2.104533 -0.01758,1.298901 -0.231499,3.799344 -0.214055,2.500448 0.06972,5.61755 0.317728,3.131719 -0.111797,4.45392 -0.429489,1.32219 -1.671178,1.731376 -1.241702,0.40918 -1.856138,-0.0769 -0.648339,-0.500679 -1.288924,-8.756147 -0.630929,-8.231218 -0.473921,-15.539776 0.156978,-7.308558 -0.08209,-8.758283 -0.229458,-1.425465 -0.0783,-1.822552 0.175411,-0.406753 -0.484633,-4.329249 -0.645426,-3.956406 -2.285139,-3.276705 -1.615551,0.669881 -0.658548,-2.434551 0.947319,-3.128877 1.950569,-5.268889 1.017863,-2.1739 1.258287,-3.477134 0.264676,-1.312878 0.446011,-2.19943 0.20561,-0.896187 0.348984,-2.160866 0.16763,-1.274319 0.882281,-2.23237 z m 7.974712,14.272271 v 0 q -1.120091,0.220429 -2.059583,2.026153 -0.939487,1.805727 -1.113798,6.031706 -0.164651,4.250239 -0.391506,8.131986 -0.212211,3.847848 -0.322681,5.54881 -0.08616,1.691326 3.044027,-0.114347 3.11561,-1.771735 7.364751,-5.426325 4.23453,-3.620689 5.33267,-7.006101 1.10778,-3.361157 0.76608,-4.433056 -0.31744,-1.081551 -0.90174,-2.057049 -0.60852,-0.965876 -2.34614,-2.016689 -1.74727,-1.075068 -4.999634,-0.990299 -3.252369,0.08477 -4.372465,0.305202 z"
     fill="black"
     id="path2"
     style="fill:#e4e4e7;fill-opacity:1;stroke-width:2.61007" />
</svg>
